<?xml version="1.0" standalone="no"?>
<!DOCTYPE svg PUBLIC "-//W3C//DTD SVG 20010904//EN"
 "http://www.w3.org/TR/2001/REC-SVG-20010904/DTD/svg10.dtd">
<svg version="1.0" xmlns="http://www.w3.org/2000/svg"
 width="444.000000pt" height="326.000000pt" viewBox="0 0 444.000000 326.000000"
 preserveAspectRatio="xMidYMid meet">

<g transform="translate(0.000000,326.000000) scale(0.100000,-0.100000)"
fill="#000000" stroke="none">
<path d="M2085 2723 c-440 -62 -789 -344 -938 -760 -84 -234 -81 -532 8 -768
100 -266 302 -493 550 -617 172 -87 321 -122 515 -122 307 -1 570 107 793 323
170 165 272 352 324 591 28 134 24 345 -9 480 -80 318 -270 573 -544 730 -86
49 -228 105 -289 114 -49 7 -43 5 65 -29 294 -93 533 -299 670 -578 294 -601
5 -1325 -623 -1554 -79 -29 -157 -45 -157 -31 0 4 10 8 23 8 21 0 22 3 19 80
-5 94 5 167 18 135 8 -19 9 -19 9 3 1 12 7 22 14 22 12 0 13 -45 4 -181 l-2
-35 38 7 c68 12 76 28 78 157 1 101 8 134 22 100 4 -9 6 -8 6 2 1 23 40 44 56
30 11 -9 12 -7 9 8 -3 10 1 24 10 31 24 20 37 -19 34 -97 l-3 -67 -29 63 c-45
97 -61 82 -57 -56 2 -61 -1 -98 -9 -107 -16 -20 1 -19 26 1 13 11 15 17 7 20
-8 4 -13 26 -13 62 0 83 13 93 39 32 12 -28 19 -54 17 -59 -5 -7 12 -8 47 -2
4 0 7 53 6 116 -2 93 -5 113 -15 104 -7 -6 -18 -8 -24 -4 -6 4 13 28 44 56
206 189 322 514 275 779 -7 41 -13 90 -13 108 0 18 -2 28 -6 22 -4 -6 -12 9
-19 32 -25 83 -112 235 -170 295 -26 27 -27 34 -3 27 14 -5 14 -4 2 4 -8 6
-18 8 -24 5 -5 -3 -6 -1 -2 6 4 6 3 10 -2 9 -5 -2 -38 20 -73 48 -175 141
-356 205 -578 205 -180 0 -382 -66 -520 -170 -30 -22 -58 -38 -63 -35 -5 3 -7
2 -6 -3 3 -9 -5 -13 -24 -13 -7 0 -2 7 10 16 28 19 28 32 0 36 -13 2 -22 9
-20 16 1 8 -2 11 -8 7 -5 -3 -22 1 -37 9 -16 8 -24 15 -19 16 12 0 -14 30 -27
30 -6 0 -2 -7 9 -15 10 -8 14 -15 7 -15 -6 0 -18 9 -26 21 -9 13 -17 16 -22
10 -9 -15 -28 -14 -19 2 4 6 3 9 -1 4 -16 -14 -16 -47 0 -47 8 0 15 -4 15 -10
0 -5 -8 -7 -17 -4 -15 5 -15 4 -3 -4 8 -6 17 -9 20 -7 10 6 41 -65 34 -77 -4
-6 -2 -8 4 -4 6 3 14 -5 19 -20 l9 -26 18 21 c16 18 17 21 3 21 -27 0 -30 20
-7 45 23 25 50 23 50 -2 0 -12 -3 -13 -14 -4 -10 9 -16 7 -27 -6 -11 -15 -11
-16 0 -6 11 9 19 8 36 -5 l22 -17 -48 -54 c-27 -30 -56 -56 -64 -57 -17 -3
-20 12 -5 21 14 9 12 26 -2 24 -19 -3 -49 12 -43 21 3 4 -3 7 -12 6 -10 0 -18
6 -18 14 0 8 -8 14 -17 12 -10 -1 -23 6 -30 17 -9 15 -15 17 -25 9 -16 -13
-17 -28 -3 -28 6 0 22 -7 35 -16 l25 -16 -21 -30 c-23 -31 -41 -33 -45 -4 -1
10 -6 21 -10 24 -4 4 -4 -1 -1 -10 4 -10 2 -18 -3 -18 -6 0 -10 6 -10 14 0 8
-8 14 -19 13 -29 -2 -19 -31 14 -42 17 -5 30 -17 30 -25 0 -8 7 -15 15 -15 24
0 60 -24 60 -41 0 -10 5 -12 13 -7 16 10 39 13 35 5 -35 -65 -80 -174 -98
-233 -30 -104 -38 -288 -16 -396 9 -44 16 -82 16 -84 0 -3 -12 -5 -27 -4 -19
0 -30 7 -35 20 -6 17 -7 16 -5 -5 2 -21 6 -24 30 -22 17 2 27 -1 27 -10 0 -10
2 -11 8 0 6 8 13 -1 21 -30 17 -58 84 -181 132 -244 21 -28 39 -62 39 -75 0
-14 5 -30 12 -37 15 -15 -6 -67 -24 -56 -7 4 -8 3 -4 -5 9 -15 -3 -53 -15 -46
-5 3 -6 -2 -2 -11 4 -10 2 -15 -3 -11 -6 3 -16 1 -24 -5 -12 -8 -12 -9 3 -4
20 6 25 -20 5 -27 -9 -3 -8 -10 6 -26 11 -11 14 -21 8 -21 -16 0 -144 130
-192 195 -59 80 -106 163 -140 248 -35 88 -35 88 -12 113 14 16 28 18 90 16
44 -2 72 -8 72 -15 0 -8 3 -8 10 -1 17 17 1 46 -22 38 -23 -7 -38 10 -38 44 0
15 6 22 19 22 10 0 21 9 24 20 5 21 -16 29 -28 9 -4 -5 -12 -8 -18 -6 -17 6
-49 -12 -42 -23 8 -13 -30 -31 -52 -24 -15 5 -15 4 -3 -5 12 -9 11 -11 -8 -11
-19 0 -21 -4 -16 -24 3 -14 1 -33 -6 -43 -9 -15 -10 -12 -5 17 4 28 3 31 -5
15 -8 -16 -9 -13 -4 15 3 23 2 30 -4 22 -7 -10 -11 -5 -16 18 -11 59 -8 70 22
71 27 2 27 2 2 6 -14 3 -28 10 -32 17 -12 17 -9 265 3 332 42 231 154 442 327
613 68 67 96 90 102 81 5 -8 19 -15 31 -17 25 -4 34 -10 34 -24 0 -5 3 -8 6
-6 9 3 39 -24 34 -33 -2 -4 12 -22 32 -41 20 -19 33 -29 30 -23 -4 7 0 15 9
18 13 5 15 15 10 54 -4 26 -10 56 -13 67 -4 14 8 8 45 -23 77 -65 82 -60 57
58 -11 53 -12 77 -4 92 6 11 8 22 5 25 -8 8 -27 -7 -21 -17 3 -5 -4 -11 -15
-15 -11 -3 -20 -12 -20 -18 0 -7 -4 -6 -10 3 -5 8 -10 10 -10 4 0 -6 8 -18 17
-25 11 -10 14 -10 9 -1 -4 6 -3 12 3 12 12 0 18 -19 27 -85 l6 -50 -46 45
c-25 24 -46 50 -46 57 0 17 -11 16 -37 -2 -16 -12 -22 -12 -26 -2 -3 7 -6 7
-6 1 -1 -6 9 -19 21 -30 22 -19 22 -19 8 0 -13 17 -13 19 0 14 14 -4 43 -128
30 -128 -11 0 -51 46 -45 52 3 2 -5 13 -17 24 l-23 19 20 -25 c18 -22 18 -23
1 -10 -24 19 -36 53 -22 63 8 6 7 7 -2 5 -8 -2 -13 -7 -12 -12 3 -15 -31 -29
-42 -18 -12 12 75 70 184 122 183 87 391 123 590 102 61 -6 113 -10 115 -8 2
2 -30 9 -72 15 -73 11 -227 13 -290 4z m385 -298 c189 -61 332 -159 444 -305
222 -290 244 -675 56 -992 -84 -141 -238 -276 -392 -346 -77 -35 -213 -71
-272 -74 l-41 -1 45 -7 c25 -4 38 -8 30 -8 -12 -2 -14 -18 -12 -97 3 -69 1
-95 -8 -95 -7 0 -10 -6 -7 -14 10 -24 -102 -30 -200 -10 -13 2 -23 9 -23 15 0
8 4 8 14 0 8 -7 34 -11 58 -10 l43 2 0 57 0 56 -34 3 c-46 3 -51 7 -51 42 0
26 3 29 34 29 19 0 37 -6 39 -12 3 -8 6 -6 6 5 1 13 -7 17 -39 17 -22 0 -43 0
-47 0 -13 1 -15 -71 -2 -86 6 -8 24 -14 40 -14 15 0 30 -4 33 -8 3 -5 -15 -6
-39 -2 -24 4 -42 3 -39 -1 2 -4 -4 -10 -13 -12 -14 -4 -13 -5 5 -6 15 -1 22
-7 22 -21 0 -15 6 -20 28 -19 23 2 24 2 5 6 -30 6 -32 43 -3 43 11 0 20 -6 20
-14 0 -8 3 -21 6 -30 5 -13 -1 -16 -30 -16 -29 0 -36 4 -36 19 0 14 -7 19 -25
17 -23 -1 -37 -16 -15 -16 6 0 10 -10 10 -21 0 -19 -4 -20 -32 -15 -18 3 -42
7 -53 9 -76 14 -85 19 -85 43 0 13 6 24 13 24 8 0 9 2 1 8 -7 4 -14 16 -17 27
-2 11 -5 2 -6 -21 0 -22 -4 -43 -7 -47 -4 -3 -29 3 -58 14 -28 11 -61 22 -73
23 -12 2 -29 10 -37 19 -9 9 -25 19 -36 22 -11 4 -21 16 -21 28 -1 17 -2 18
-6 5 -2 -10 -6 -18 -8 -18 -6 0 -105 69 -118 82 -13 14 -17 62 -5 73 3 4 18
-1 32 -10 27 -18 33 -44 15 -62 -8 -8 -4 -15 12 -27 13 -8 24 -15 25 -13 1 1
-2 51 -7 112 -4 64 -4 114 1 121 6 7 -1 18 -20 33 -17 12 -30 26 -30 32 0 5
33 -18 73 -52 89 -76 87 -74 60 -60 -20 10 -23 9 -24 -6 0 -16 -1 -16 -9 2 -8
18 -9 17 -9 -8 -1 -25 1 -27 20 -16 39 20 44 -1 26 -103 -12 -71 -13 -94 -4
-100 20 -13 29 -9 22 11 -9 29 16 161 26 136 7 -19 8 -19 8 2 1 12 -5 24 -11
26 -10 4 -10 6 0 6 8 1 16 -8 19 -19 6 -24 33 -27 33 -4 0 18 -7 20 135 -30
67 -24 125 -37 175 -40 74 -5 74 -5 15 4 -332 48 -595 252 -716 558 -105 264
-63 591 106 827 92 130 263 260 410 314 115 41 182 51 330 47 118 -3 153 -8
225 -31z m-790 -50 c13 -14 21 -25 18 -25 -2 0 -15 11 -28 25 -13 14 -21 25
-18 25 2 0 15 -11 28 -25z m-158 -51 c29 -15 29 -17 14 -32 -16 -16 -19 -15
-37 7 -18 23 -25 41 -14 41 4 0 20 -7 37 -16z m-81 -166 c8 -7 22 -22 29 -32
12 -16 13 -18 1 -11 -10 5 -12 4 -7 -4 6 -9 11 -9 22 0 18 15 17 -1 -1 -25
-21 -28 -47 -30 -43 -4 2 12 -3 23 -12 25 -12 4 -12 3 -1 -5 8 -6 9 -12 3 -16
-5 -3 -20 3 -33 13 -22 18 -22 19 -6 45 20 29 27 31 48 14z m-176 -768 c-3 -5
-12 -10 -18 -10 -7 0 -6 4 3 10 19 12 23 12 15 0z m-25 -51 c-22 -17 -23 -19
-5 -17 11 2 23 8 27 13 4 6 8 2 8 -7 0 -15 -8 -18 -42 -18 l-43 1 30 24 c17
14 35 25 40 25 6 0 -1 -10 -15 -21z m336 -495 c-19 -27 -20 -44 -5 -44 5 0 7
5 4 10 -3 6 -1 10 4 10 6 0 11 -9 11 -20 0 -24 -13 -26 -30 -5 -9 11 -9 22 1
49 7 19 17 33 21 30 5 -3 2 -17 -6 -30z m165 -21 c13 -16 12 -17 -3 -4 -17 13
-22 21 -14 21 2 0 10 -8 17 -17z m880 -48 c-18 -8 -36 -15 -40 -15 -13 1 45
29 59 29 8 0 0 -6 -19 -14z m5 -190 c-6 -16 -66 -38 -66 -24 0 5 8 9 18 9 10
0 13 3 6 8 -15 10 -28 162 -14 162 6 0 8 -4 5 -10 -3 -6 1 -7 9 -4 9 3 13 10
10 15 -3 5 -1 9 5 9 5 0 12 -8 14 -17 3 -13 6 -11 8 7 2 14 5 -13 6 -59 2 -46
2 -90 -1 -96z m-162 119 c11 -29 7 -172 -6 -180 -7 -4 -8 -3 -4 4 4 7 1 12 -8
12 -10 0 -17 -10 -17 -27 l-2 -28 -4 28 c-4 27 -17 35 -27 18 -4 -5 0 -12 6
-14 8 -4 7 -6 -4 -6 -9 -1 -22 -3 -30 -6 -10 -4 -13 14 -11 87 3 118 3 117 13
93 8 -19 9 -19 9 2 1 21 15 28 62 32 9 0 20 -6 23 -15z m-101 -221 c-7 -2 -19
-2 -25 0 -7 3 -2 5 12 5 14 0 19 -2 13 -5z"/>
<path d="M2010 2321 c-76 -24 -115 -46 -167 -94 -46 -43 -73 -92 -73 -135 l0
-26 33 32 c56 55 170 80 270 59 47 -10 48 -27 2 -27 -20 0 -52 -7 -73 -16 -20
-9 -66 -22 -101 -30 -72 -15 -133 -48 -176 -95 -23 -25 -26 -30 -10 -24 54 20
58 20 43 -6 -24 -43 -72 -90 -113 -111 -43 -22 -85 -56 -85 -70 0 -4 8 -8 18
-8 10 0 36 -9 57 -21 27 -14 51 -19 75 -15 32 5 34 4 16 -9 -11 -8 -39 -15
-63 -15 -32 0 -45 -5 -53 -19 -28 -53 6 -105 75 -114 24 -4 68 -18 95 -32 60
-31 74 -26 65 22 -6 32 -4 35 12 29 10 -3 5 5 -12 19 -33 28 -27 44 10 27 42
-19 43 -13 1 9 -52 28 -35 44 28 28 65 -16 150 -7 184 19 68 55 96 53 120 -11
18 -47 3 -80 -58 -124 -74 -54 -110 -89 -110 -107 0 -15 4 -14 29 6 15 14 44
31 62 38 57 23 115 69 139 111 20 37 22 49 15 124 -7 83 -6 85 29 157 l37 72
-28 16 c-21 11 -57 15 -138 15 -126 0 -175 -17 -210 -72 -19 -29 -24 -31 -88
-35 -37 -1 -67 -1 -67 1 0 2 9 18 20 36 24 39 74 65 123 65 19 0 54 7 78 16
63 23 190 23 267 0 59 -18 62 -21 62 -50 0 -18 -8 -48 -19 -69 -19 -37 -19
-37 6 -104 29 -78 27 -137 -6 -202 -21 -41 -36 -54 -148 -135 -61 -45 -104
-97 -118 -146 -7 -23 -5 -22 33 12 44 40 92 68 116 68 12 0 6 -12 -18 -45 -75
-98 -99 -232 -62 -342 14 -42 28 -61 74 -98 83 -65 87 -63 87 48 1 81 4 100
32 165 18 40 53 105 79 145 63 97 112 200 120 254 4 31 9 41 15 32 26 -42 -8
-176 -78 -309 -62 -118 -92 -195 -99 -256 -8 -61 10 -83 20 -25 8 49 59 150
114 222 44 58 92 153 92 182 0 9 5 17 10 17 15 0 11 -169 -5 -215 -8 -21 -13
-41 -11 -43 6 -5 62 71 85 114 79 152 25 389 -132 578 l-41 49 34 -18 c53 -27
164 -144 194 -204 16 -30 33 -84 40 -120 l13 -66 17 55 c26 82 31 211 12 294
-49 207 -224 383 -403 406 l-58 7 60 1 c33 1 79 -3 103 -7 63 -12 38 11 -56
50 -121 51 -298 52 -447 4 -12 -4 -3 10 24 34 24 23 42 43 40 45 -2 2 -29 -4
-59 -13z"/>
<path d="M1576 1615 c6 -40 19 -64 29 -53 3 3 -4 25 -15 49 l-20 44 6 -40z"/>
<path d="M1645 1525 c-17 -16 -25 -35 -25 -57 0 -37 33 -98 53 -98 7 0 24 -11
37 -25 31 -33 36 -32 44 8 4 17 22 56 42 85 19 29 32 57 29 62 -7 12 -111 50
-136 50 -11 0 -31 -11 -44 -25z"/>
<path d="M1685 799 c6 -33 15 -36 15 -6 0 15 -4 27 -9 27 -6 0 -8 -10 -6 -21z"/>
<path d="M1803 693 c-1 -68 -5 -90 -18 -99 -15 -11 -14 -14 12 -27 15 -8 43
-18 61 -22 31 -6 32 -6 31 27 -1 18 -3 25 -6 16 -5 -19 -29 -23 -52 -9 -11 7
-12 23 -6 77 5 38 9 78 10 89 2 18 -10 35 -25 35 -3 0 -6 -39 -7 -87z"/>
<path d="M1536 755 c4 -8 10 -12 15 -9 11 6 2 24 -11 24 -5 0 -7 -7 -4 -15z"/>
<path d="M1571 734 c0 -11 3 -14 6 -6 3 7 2 16 -1 19 -3 4 -6 -2 -5 -13z"/>
<path d="M1962 695 c0 -16 2 -22 5 -12 2 9 2 23 0 30 -3 6 -5 -1 -5 -18z"/>
<path d="M1791 694 c0 -11 3 -14 6 -6 3 7 2 16 -1 19 -3 4 -6 -2 -5 -13z"/>
<path d="M1966 646 c-10 -35 -24 -77 -32 -92 -16 -31 -17 -29 13 -38 21 -7 22
-5 17 23 -7 33 -1 37 44 24 20 -5 23 -11 18 -34 -4 -22 -1 -29 15 -34 26 -9
35 0 20 19 -8 9 -10 28 -7 48 5 27 4 29 -4 13 -8 -16 -10 -13 -6 17 3 20 1 38
-4 40 -4 2 -10 17 -12 33 -3 30 -14 45 -33 45 -6 0 -19 -29 -29 -64z m53 -33
c1 -17 -5 -23 -19 -23 -23 0 -26 24 -9 67 l12 28 7 -25 c5 -14 8 -35 9 -47z"/>
<path d="M1994 620 c0 -11 4 -20 8 -20 4 0 8 9 8 20 0 11 -4 20 -8 20 -4 0 -8
-9 -8 -20z"/>
<path d="M2203 693 c9 -2 25 -2 35 0 9 3 1 5 -18 5 -19 0 -27 -2 -17 -5z"/>
<path d="M2212 650 c0 -14 2 -19 5 -12 2 6 2 18 0 25 -3 6 -5 1 -5 -13z"/>
<path d="M2178 633 c7 -3 16 -2 19 1 4 3 -2 6 -13 5 -11 0 -14 -3 -6 -6z"/>
<path d="M2313 575 c0 -38 2 -53 4 -32 2 20 2 52 0 70 -2 17 -4 1 -4 -38z"/>
<path d="M1775 620 c-3 -5 -1 -10 4 -10 6 0 11 5 11 10 0 6 -2 10 -4 10 -3 0
-8 -4 -11 -10z"/>
<path d="M1857 600 c-3 -11 -1 -20 4 -20 5 0 9 6 9 14 0 8 6 17 13 19 7 4 6 6
-4 6 -9 1 -19 -8 -22 -19z"/>
<path d="M2163 613 c9 -2 23 -2 30 0 6 3 -1 5 -18 5 -16 0 -22 -2 -12 -5z"/>
<path d="M2213 545 c0 -22 2 -30 4 -17 2 12 2 30 0 40 -3 9 -5 -1 -4 -23z"/>
<path d="M1970 550 c0 -5 5 -10 10 -10 6 0 10 5 10 10 0 6 -4 10 -10 10 -5 0
-10 -4 -10 -10z"/>
<path d="M2005 540 c3 -5 8 -10 11 -10 2 0 4 5 4 10 0 6 -5 10 -11 10 -5 0 -7
-4 -4 -10z"/>
<path d="M1506 2305 c4 -8 10 -12 15 -9 11 6 2 24 -11 24 -5 0 -7 -7 -4 -15z"/>
<path d="M1390 2121 c0 -6 4 -13 10 -16 6 -3 7 1 4 9 -7 18 -14 21 -14 7z"/>
<path d="M2405 560 c-17 -8 -16 -8 8 -7 15 1 27 5 27 9 0 10 -9 9 -35 -2z"/>
<path d="M2151 2693 c0 -8 -15 -13 -33 -13 -30 -1 -31 -2 -15 -14 19 -15 24
-31 5 -20 -7 4 -8 3 -4 -5 4 -6 12 -8 18 -5 8 5 9 1 5 -10 -4 -9 -3 -14 2 -11
13 7 23 -11 31 -57 6 -31 5 -38 -6 -34 -8 3 -11 0 -7 -10 6 -16 53 -20 53 -4
0 6 -3 10 -7 10 -5 0 -7 14 -7 30 2 48 3 52 14 45 6 -4 7 1 3 11 -4 12 -3 15
5 10 8 -5 10 -1 5 10 -5 13 -3 15 7 9 9 -5 11 -4 6 4 -4 6 -2 19 5 27 11 14 9
15 -16 12 -21 -2 -31 -9 -32 -23 l-3 -20 9 20 c7 13 10 15 10 5 0 -8 -6 -26
-13 -38 l-13 -24 -17 27 c-9 14 -15 32 -12 38 2 7 5 5 5 -4 1 -9 9 -23 19 -30
15 -12 15 -12 5 1 -6 8 -13 29 -16 45 -2 17 -5 24 -6 18z"/>
<path d="M1976 2672 c-15 -3 -16 -6 -5 -13 11 -7 9 -9 -6 -9 -18 0 -20 -8 -23
-78 -1 -42 -5 -85 -8 -94 -4 -13 0 -18 15 -18 11 0 23 5 26 10 3 6 1 10 -4 10
-6 0 -11 8 -11 19 0 13 10 20 32 25 40 8 54 -5 38 -34 -15 -28 -9 -33 21 -20
23 10 23 10 1 6 -13 -2 -20 0 -16 6 4 5 17 8 29 6 16 -4 22 -1 18 9 -3 7 -9
13 -14 13 -14 0 -50 63 -44 78 3 7 1 10 -5 7 -13 -8 -32 32 -27 58 4 19 4 18
6 -5 0 -15 5 -29 9 -32 5 -3 6 8 4 25 -5 33 -9 37 -36 31z m19 -92 c20 -38 19
-40 -8 -40 -20 0 -23 4 -19 35 2 19 6 35 8 35 2 0 10 -13 19 -30z"/>
<path d="M1981 2564 c0 -11 3 -14 6 -6 3 7 2 16 -1 19 -3 4 -6 -2 -5 -13z"/>
<path d="M2324 2665 c8 -21 -14 -145 -26 -145 -5 0 -6 5 -3 10 3 6 1 10 -4 10
-6 0 -10 -10 -9 -23 2 -20 7 -22 36 -19 19 3 29 7 23 11 -12 8 -3 111 9 111 4
0 10 -12 13 -27 3 -16 9 -37 12 -48 6 -16 5 -17 -4 -5 -6 8 -11 11 -11 7 0
-13 29 -77 35 -77 3 0 3 4 0 10 -3 5 0 7 8 4 11 -4 17 13 28 75 7 45 17 81 21
81 5 0 6 -4 3 -10 -3 -5 -1 -10 4 -10 13 0 13 3 5 24 -3 9 -17 16 -31 16 -13
0 -21 -4 -18 -10 7 -11 -5 -113 -13 -105 -3 2 -14 33 -26 67 -15 44 -27 64
-40 67 -14 2 -17 -1 -12 -14z"/>
<path d="M2413 2673 c9 -2 23 -2 30 0 6 3 -1 5 -18 5 -16 0 -22 -2 -12 -5z"/>
<path d="M1921 2644 c0 -11 3 -14 6 -6 3 7 2 16 -1 19 -3 4 -6 -2 -5 -13z"/>
<path d="M2624 2592 c8 -13 -24 -83 -36 -76 -4 3 -5 -3 -1 -12 4 -12 3 -15 -5
-10 -8 5 -10 1 -5 -10 4 -11 3 -15 -5 -10 -7 4 -8 -2 -2 -23 4 -16 5 -32 2
-36 -4 -3 2 -3 12 1 11 4 17 3 14 -2 -4 -5 9 -10 28 -11 19 -2 40 -4 46 -5 8
-2 12 5 10 16 -2 12 1 16 9 10 8 -4 10 -3 5 4 -14 23 49 130 68 116 3 -2 4 -1
1 3 -3 3 -16 8 -30 9 -19 2 -25 -2 -25 -17 0 -11 -4 -17 -10 -14 -6 4 -7 -1
-3 -11 4 -12 3 -15 -5 -10 -8 5 -10 1 -5 -10 5 -13 3 -15 -7 -9 -8 5 -11 4 -6
-3 10 -16 -15 -62 -33 -62 -14 0 -14 2 -1 11 12 8 11 9 -5 5 -29 -8 -45 6 -38
32 3 12 10 19 16 15 6 -3 7 -1 3 5 -4 7 -2 20 4 29 11 17 11 17 6 0 -4 -11 -2
-16 5 -12 5 4 7 15 4 25 -6 18 22 56 33 45 4 -3 0 -10 -8 -15 -10 -6 -11 -10
-3 -10 17 0 36 36 20 38 -7 0 -23 4 -36 8 -16 5 -22 4 -17 -4z"/>
<path d="M2700 2576 c0 -2 9 -6 20 -9 11 -3 18 -1 14 4 -5 9 -34 13 -34 5z"/>
<path d="M2053 2540 c2 -8 12 -16 23 -17 13 -2 15 -1 4 4 -8 3 -19 11 -23 17
-6 7 -7 6 -4 -4z"/>
<path d="M2006 2505 c4 -8 8 -15 10 -15 2 0 4 7 4 15 0 8 -4 15 -10 15 -5 0
-7 -7 -4 -15z"/>
<path d="M2431 2504 c0 -11 3 -14 6 -6 3 7 2 16 -1 19 -3 4 -6 -2 -5 -13z"/>
<path d="M2722 2495 c-6 -14 -10 -25 -8 -25 2 0 11 11 20 25 9 14 13 25 8 25
-5 0 -14 -11 -20 -25z"/>
<path d="M2830 2511 c9 -6 10 -11 3 -11 -6 0 -13 -10 -15 -22 -2 -13 -10 -23
-18 -23 -8 0 -15 -7 -15 -15 0 -22 -35 -70 -51 -70 -7 0 -12 -9 -11 -19 1 -12
6 -17 16 -13 9 3 12 1 7 -6 -3 -6 -1 -14 6 -18 7 -4 10 -4 7 0 -10 11 6 61 19
62 7 1 17 2 22 3 6 0 10 6 10 12 0 8 -6 7 -17 -2 -11 -9 -10 -3 6 19 12 17 25
32 27 32 6 0 -6 -71 -14 -85 -4 -5 -5 -26 -5 -45 2 -31 1 -32 -7 -10 -7 23 -8
23 -9 4 -1 -23 25 -51 36 -40 3 3 1 6 -6 6 -12 0 36 65 48 65 16 1 30 17 25
29 -3 8 5 21 17 30 29 20 32 41 8 43 -11 1 -19 -2 -19 -7 0 -12 -53 -89 -61
-90 -4 0 0 30 7 66 12 54 12 70 2 82 -7 8 -12 18 -10 21 2 3 -2 7 -10 9 -9 2
-8 0 2 -7z"/>
<path d="M1775 2480 c3 -5 8 -10 11 -10 2 0 4 5 4 10 0 6 -5 10 -11 10 -5 0
-7 -4 -4 -10z"/>
<path d="M1911 2474 c0 -11 3 -14 6 -6 3 7 2 16 -1 19 -3 4 -6 -2 -5 -13z"/>
<path d="M2318 2483 c6 -2 18 -2 25 0 6 3 1 5 -13 5 -14 0 -19 -2 -12 -5z"/>
<path d="M1730 2453 c0 -5 13 -17 28 -27 l27 -19 -24 26 c-26 28 -31 32 -31
20z"/>
<path d="M2873 2425 c4 -5 0 -17 -10 -27 -9 -10 -14 -20 -12 -22 2 -2 12 6 22
19 13 18 14 25 5 31 -7 4 -10 3 -5 -1z"/>
<path d="M1741 2364 c0 -11 3 -14 6 -6 3 7 2 16 -1 19 -3 4 -6 -2 -5 -13z"/>
<path d="M2771 2344 c0 -11 3 -14 6 -6 3 7 2 16 -1 19 -3 4 -6 -2 -5 -13z"/>
<path d="M2980 2347 c0 -15 -31 -47 -45 -47 -4 0 -1 8 6 18 13 15 12 16 -3 3
-10 -7 -16 -17 -13 -21 6 -10 -13 -23 -39 -27 -11 -2 -22 -6 -25 -10 -3 -3 4
-3 17 0 12 3 20 1 16 -4 -3 -5 -12 -9 -20 -9 -8 0 -14 -4 -14 -9 0 -9 29 -36
33 -30 1 2 7 13 13 24 6 11 16 20 23 20 6 0 11 4 10 8 -2 14 53 67 69 67 12 0
12 3 2 15 -15 19 -30 19 -30 2z"/>
<path d="M3064 2303 c4 -7 2 -13 -3 -13 -6 0 -11 -7 -11 -16 0 -18 -37 -69
-51 -69 -5 0 -8 -2 -7 -5 4 -12 -24 -50 -35 -47 -7 1 -12 -7 -12 -18 0 -16 5
-19 25 -16 14 3 35 5 47 5 12 1 19 3 17 5 -7 7 90 37 103 33 7 -2 10 -9 6 -16
-4 -6 1 -5 10 3 19 15 23 26 6 16 -6 -4 -9 -1 -8 6 3 21 -12 49 -26 49 -7 0
-19 -8 -26 -17 -10 -11 -10 -14 -1 -9 6 4 12 2 12 -3 0 -11 -17 -15 -55 -13
-12 0 -15 -1 -6 -5 9 -4 3 -10 -19 -19 -39 -17 -51 -10 -25 14 10 9 15 11 11
5 -4 -7 -2 -13 4 -13 7 0 9 8 5 19 -6 19 7 33 34 38 7 1 19 7 25 13 8 8 6 9
-6 5 -10 -4 -18 -3 -18 3 0 13 38 22 44 11 2 -5 3 -4 2 3 -2 7 -9 13 -17 13
-8 0 -14 8 -14 17 0 9 -4 20 -9 25 -5 4 -6 3 -2 -4z m77 -110 c13 -17 13 -17
-6 -3 -11 8 -22 16 -24 17 -2 2 0 3 6 3 6 0 17 -8 24 -17z m-184 -65 c-3 -8
-6 -5 -6 6 -1 11 2 17 5 13 3 -3 4 -12 1 -19z"/>
<path d="M3031 2274 c0 -11 3 -14 6 -6 3 7 2 16 -1 19 -3 4 -6 -2 -5 -13z"/>
<path d="M1335 2270 c-3 -6 1 -7 9 -4 18 7 21 14 7 14 -6 0 -13 -4 -16 -10z"/>
<path d="M1489 2199 c-6 -12 -7 -19 -1 -15 5 3 13 -1 16 -10 3 -8 11 -12 17
-9 6 5 4 11 -7 19 -9 7 -14 18 -10 24 4 7 5 12 2 12 -3 0 -10 -10 -17 -21z"/>
<path d="M1280 2126 c0 -2 9 -6 20 -9 11 -3 18 -1 14 4 -5 9 -34 13 -34 5z"/>
<path d="M3190 2120 c0 -5 -3 -9 -7 -9 -5 1 -15 1 -23 0 -13 -1 -13 -2 0 -11
8 -5 12 -10 10 -12 -18 -12 -89 -48 -96 -48 -4 0 1 7 12 16 18 14 18 15 -4 4
-12 -6 -27 -8 -32 -5 -6 4 -13 -1 -16 -9 -3 -9 -11 -13 -18 -9 -6 4 -5 -1 2
-10 8 -9 10 -22 6 -28 -5 -8 -3 -9 6 -4 10 6 12 4 7 -9 -5 -11 -3 -15 5 -10 8
5 9 2 5 -10 -5 -11 -3 -15 5 -10 8 5 9 2 5 -10 -4 -10 -3 -15 3 -11 6 3 10 2
10 -3 0 -6 7 -13 16 -16 8 -3 12 -2 9 4 -3 6 -1 10 4 10 20 0 11 18 -10 23
-15 4 -20 11 -15 22 3 9 2 13 -4 10 -6 -3 -10 3 -10 13 0 19 18 32 45 32 7 0
16 -13 20 -30 4 -16 12 -30 18 -30 7 0 4 -5 -5 -11 -10 -5 -18 -15 -18 -20 0
-6 7 -3 16 5 8 9 19 16 23 16 4 0 8 7 8 15 0 8 -5 15 -10 15 -5 0 -6 7 -3 16
4 10 2 13 -6 8 -8 -5 -9 -2 -5 10 4 10 3 15 -3 11 -6 -3 -10 -2 -10 3 0 7 42
32 54 32 2 0 9 -14 16 -30 11 -26 10 -33 -4 -49 -16 -18 -13 -31 8 -31 6 0 5
4 -2 9 -11 6 -8 10 10 14 16 4 23 13 23 31 0 13 -3 22 -6 20 -3 -2 -13 13 -22
32 -20 40 -21 48 -7 39 6 -3 7 1 4 9 -7 18 -14 21 -14 6z m-135 -80 c3 -5 1
-10 -4 -10 -6 0 -11 5 -11 10 0 6 2 10 4 10 3 0 8 -4 11 -10z"/>
<path d="M1232 2068 c-15 -15 -16 -49 -1 -45 6 1 14 -4 16 -11 4 -9 -2 -10
-23 -2 -40 15 -39 6 1 -12 19 -8 32 -11 28 -5 -3 6 -1 7 5 3 7 -4 12 -18 12
-32 0 -30 -22 -32 -51 -3 -17 17 -23 19 -30 8 -15 -23 -10 -39 9 -32 15 6 16
5 2 -12 -14 -17 -14 -18 7 -7 27 15 36 15 28 2 -4 -6 1 -7 11 -3 12 4 15 3 10
-5 -4 -8 -2 -10 8 -6 15 6 51 -10 74 -32 11 -11 8 -15 -13 -20 -14 -3 -25 -10
-25 -14 0 -5 9 -6 19 -3 13 3 21 -1 24 -14 4 -14 5 -12 7 7 1 14 3 37 5 52 2
16 -3 32 -13 40 -12 10 -14 10 -8 1 9 -16 5 -16 -29 -3 -22 8 -24 13 -15 30 9
16 19 20 43 18 18 -2 31 -8 30 -15 -3 -17 28 -9 39 10 5 10 6 22 3 27 -3 6 0
10 7 10 8 0 6 5 -5 11 -12 7 -26 7 -45 0 -26 -10 -25 -10 8 -5 28 4 32 3 17
-6 -19 -12 -92 -9 -104 5 -5 4 -2 5 6 0 10 -5 12 -4 7 4 -4 6 -11 9 -16 6 -11
-7 -31 19 -33 44 -1 12 -2 21 -2 21 -1 0 -6 -5 -13 -12z m159 -105 c-12 -20
-14 -14 -5 12 4 9 9 14 11 11 3 -2 0 -13 -6 -23z"/>
<path d="M1391 2054 c0 -11 3 -14 6 -6 3 7 2 16 -1 19 -3 4 -6 -2 -5 -13z"/>
<path d="M3180 2041 c10 -19 9 -25 -1 -32 -11 -7 -10 -9 4 -9 21 0 22 20 1 46
-14 18 -15 18 -4 -5z"/>
<path d="M3076 2011 c-4 -5 3 -7 14 -4 23 6 26 13 6 13 -8 0 -17 -4 -20 -9z"/>
<path d="M3088 1963 c7 -3 16 -2 19 1 4 3 -2 6 -13 5 -11 0 -14 -3 -6 -6z"/>
<path d="M1313 1953 c9 -2 23 -2 30 0 6 3 -1 5 -18 5 -16 0 -22 -2 -12 -5z"/>
<path d="M3250 1909 c0 -8 -11 -9 -32 -5 -20 4 -28 3 -20 -3 22 -14 -32 -23
-64 -11 -15 6 -29 8 -32 5 -3 -3 0 -5 6 -5 7 0 12 -4 12 -10 0 -5 -6 -7 -14
-4 -10 4 -13 -7 -11 -50 1 -31 5 -59 8 -63 4 -3 7 0 7 8 0 12 2 11 10 -1 9
-13 11 -13 19 -1 6 10 28 15 65 16 77 1 90 15 75 83 -7 29 -16 52 -21 52 -4 0
-8 -5 -8 -11z m17 -57 c7 -27 -2 -38 -39 -47 -23 -6 -27 -3 -33 24 -9 40 -1
51 36 48 22 -1 31 -8 36 -25z m-97 -1 c0 -5 -8 -8 -17 -6 -10 1 -12 0 -5 -2 6
-3 12 -9 12 -14 0 -6 6 -7 13 -4 6 4 3 -1 -7 -9 -22 -18 -46 -21 -46 -6 0 5 8
6 18 3 15 -6 15 -5 3 10 -7 9 -18 14 -25 10 -6 -4 -5 1 3 10 14 18 51 23 51 8z"/>
<path d="M3252 1840 c0 -14 2 -19 5 -12 2 6 2 18 0 25 -3 6 -5 1 -5 -13z"/>
<path d="M3291 1854 c0 -11 3 -14 6 -6 3 7 2 16 -1 19 -3 4 -6 -2 -5 -13z"/>
<path d="M1308 1825 c-3 -3 -41 -8 -84 -10 -74 -4 -79 -6 -85 -30 -6 -22 -4
-25 19 -26 l27 -1 -30 -9 c-30 -8 -30 -8 5 -5 38 4 83 -12 74 -25 -3 -5 3 -6
12 -2 11 4 15 3 10 -5 -3 -6 -1 -14 5 -18 8 -4 9 -3 5 4 -4 7 -2 12 4 12 6 0
13 -7 16 -15 10 -24 24 -17 24 11 0 19 -4 25 -14 21 -8 -3 -20 0 -26 8 -9 11
-7 12 12 8 22 -5 22 -5 4 9 -12 9 -17 21 -13 32 7 19 37 22 37 4 0 -9 4 -8 10
2 8 13 10 12 10 -4 0 -11 2 -17 5 -14 4 3 3 17 -1 32 -6 25 -15 32 -26 21z
m-55 -55 c-6 -22 -28 -27 -39 -8 -5 8 -2 9 9 5 10 -3 17 -2 17 4 0 7 -12 8
-30 4 -19 -4 -30 -3 -30 4 0 6 18 11 39 11 34 0 38 -3 34 -20z"/>
<path d="M3297 1811 c-4 -17 -3 -21 5 -13 5 5 8 16 6 23 -3 8 -7 3 -11 -10z"/>
<path d="M1280 1779 c0 -5 5 -7 10 -4 6 3 10 8 10 11 0 2 -4 4 -10 4 -5 0 -10
-5 -10 -11z"/>
<path d="M3118 1743 c7 -3 16 -2 19 1 4 3 -2 6 -13 5 -11 0 -14 -3 -6 -6z"/>
<path d="M3182 1700 c0 -14 2 -19 5 -12 2 6 2 18 0 25 -3 6 -5 1 -5 -13z"/>
<path d="M3217 1702 c-10 -10 -17 -32 -16 -48 1 -29 1 -29 10 -4 l8 25 -2 -25
c-2 -20 -8 -26 -34 -28 -32 -3 -33 -2 -33 32 0 20 5 36 10 36 6 0 10 4 10 10
0 5 -10 9 -22 8 -21 -2 -23 -7 -22 -55 1 -30 5 -57 9 -61 5 -4 6 -2 3 3 -4 6
13 10 42 10 29 0 46 -4 42 -10 -3 -5 6 0 20 13 24 22 44 30 34 13 -3 -5 5 -11
17 -13 21 -4 24 0 26 34 3 55 -13 78 -53 78 -19 0 -40 -8 -49 -18z m77 -24 c9
-34 7 -48 -5 -48 -5 0 -8 4 -5 9 4 5 -3 7 -14 4 -16 -4 -20 0 -22 23 -1 21 -3
16 -8 -16 l-7 -45 -1 48 c-2 46 -1 47 27 47 21 0 30 -6 35 -22z"/>
<path d="M3268 1593 c6 -2 18 -2 25 0 6 3 1 5 -13 5 -14 0 -19 -2 -12 -5z"/>
<path d="M1241 1558 c-1 -21 4 -28 17 -28 11 0 13 3 6 8 -7 4 -14 16 -17 27
-4 15 -5 14 -6 -7z"/>
<path d="M1260 1569 c0 -6 7 -17 15 -25 8 -9 15 -24 15 -35 0 -19 -5 -20 -72
-15 -57 4 -64 3 -33 -4 39 -8 39 -9 -12 -6 -46 3 -53 1 -53 -15 0 -21 20 -25
37 -8 7 7 38 10 83 7 l72 -4 -5 49 c-4 44 -17 66 -39 67 -5 0 -8 -5 -8 -11z"/>
<path d="M3130 1537 c0 -22 3 -23 63 -21 56 2 58 2 22 -6 -34 -8 -31 -8 23 -5
39 3 62 1 62 -6 0 -5 5 -7 10 -4 6 3 10 14 10 24 0 15 -9 17 -57 16 -37 -2
-42 -1 -15 2 23 2 42 8 42 12 0 4 -30 4 -67 -1 -47 -7 -69 -6 -71 1 -7 20 -22
11 -22 -12z"/>
<path d="M3140 1500 c-23 -7 -23 -8 -3 -9 12 -1 25 4 28 9 3 6 5 10 3 9 -2 -1
-14 -5 -28 -9z"/>
<path d="M1173 1453 c9 -2 23 -2 30 0 6 3 -1 5 -18 5 -16 0 -22 -2 -12 -5z"/>
<path d="M1277 1443 c6 -15 29 -18 37 -4 3 5 -5 11 -18 13 -17 4 -23 1 -19 -9z"/>
<path d="M3250 1454 c0 -6 9 -18 20 -25 11 -8 17 -19 12 -25 -7 -12 -100 0
-134 17 -25 13 -28 12 -28 -12 0 -11 4 -18 9 -15 13 9 151 -25 151 -36 0 -5
-9 -12 -20 -15 -28 -7 -25 -23 4 -23 13 0 27 -6 30 -12 3 -7 3 -1 0 13 -3 15
0 45 6 69 13 47 13 47 -15 52 -11 1 -23 8 -27 13 -5 6 -8 6 -8 -1z"/>
<path d="M3125 1443 c11 -3 24 -10 28 -17 6 -7 7 -6 4 4 -2 8 -14 16 -28 17
-19 1 -20 1 -4 -4z"/>
<path d="M3240 1420 c0 -6 7 -10 15 -10 8 0 15 2 15 4 0 2 -7 6 -15 10 -8 3
-15 1 -15 -4z"/>
<path d="M3101 1394 c0 -11 3 -14 6 -6 3 7 2 16 -1 19 -3 4 -6 -2 -5 -13z"/>
<path d="M1331 1384 c0 -11 3 -14 6 -6 3 7 2 16 -1 19 -3 4 -6 -2 -5 -13z"/>
<path d="M3140 1379 c0 -5 5 -7 10 -4 6 3 10 8 10 11 0 2 -4 4 -10 4 -5 0 -10
-5 -10 -11z"/>
<path d="M3230 1359 c0 -5 9 -9 20 -9 11 0 20 2 20 4 0 2 -9 6 -20 9 -11 3
-20 1 -20 -4z"/>
<path d="M3301 1344 c0 -11 3 -14 6 -6 3 7 2 16 -1 19 -3 4 -6 -2 -5 -13z"/>
<path d="M3077 1292 c8 -5 9 -13 3 -22 -14 -22 -12 -43 3 -37 17 7 77 -19 77
-33 0 -6 -5 -8 -12 -4 -7 5 -8 3 -4 -5 5 -7 11 -10 14 -7 7 8 42 -24 42 -39 0
-7 7 -18 15 -25 13 -11 14 -10 9 5 -5 12 -4 16 3 12 10 -6 23 13 23 33 0 5
-14 15 -30 24 -19 9 -28 10 -23 3 4 -7 -1 -5 -11 3 -17 13 -17 15 10 22 16 4
36 5 45 3 14 -5 36 22 27 30 -2 2 -31 -2 -65 -7 -54 -9 -66 -8 -89 6 -14 10
-23 20 -19 24 3 4 10 0 15 -8 6 -10 10 -11 10 -3 0 7 -9 17 -19 23 -23 12 -42
14 -24 2z m162 -131 c0 -10 -2 -11 -6 -3 -2 6 -11 12 -19 12 -8 0 -14 4 -14 9
0 5 9 7 20 4 11 -3 20 -13 19 -22z"/>
<path d="M1288 1273 c6 -2 18 -2 25 0 6 3 1 5 -13 5 -14 0 -19 -2 -12 -5z"/>
<path d="M2960 1013 c5 -2 10 -9 10 -14 0 -6 -4 -8 -9 -5 -5 3 -32 -16 -61
-43 -51 -48 -52 -50 -45 -92 9 -53 9 -54 32 -44 47 21 71 -9 37 -46 -23 -25
-34 -24 -34 4 0 16 -6 23 -20 23 -16 0 -17 -3 -6 -16 26 -30 30 -44 13 -37
-13 5 -17 1 -17 -14 0 -25 17 -21 60 14 39 31 51 61 44 107 -5 29 -11 39 -23
37 -22 -4 -59 -26 -43 -27 15 0 6 -20 -9 -20 -12 0 -12 80 1 81 6 1 16 2 23 3
6 1 17 -2 24 -6 7 -6 14 -4 19 3 4 8 3 9 -4 5 -7 -4 -12 -1 -12 10 0 14 -2 15
-17 3 -14 -10 -13 -8 2 9 14 17 21 20 25 10 3 -7 11 -14 18 -16 9 -2 12 8 10
35 -2 20 -9 38 -16 39 -7 1 -8 0 -2 -3z m-10 -171 c0 -4 -9 -8 -19 -8 -15 0
-17 3 -9 13 10 12 28 9 28 -5z"/>
<path d="M2832 890 c0 -19 2 -27 5 -17 2 9 2 25 0 35 -3 9 -5 1 -5 -18z"/>
<path d="M2766 789 c3 -57 14 -62 14 -6 0 26 -4 47 -8 47 -5 0 -7 -18 -6 -41z"/>
<path d="M2678 705 c2 -50 -1 -81 -9 -91 -10 -12 -9 -13 5 -8 13 5 16 21 16
90 0 46 -3 84 -7 84 -5 0 -7 -34 -5 -75z"/>
<path d="M2722 689 c1 -36 3 -43 5 -21 3 19 9 30 15 26 5 -4 5 4 -2 17 -19 37
-20 36 -18 -22z"/>
<path d="M2741 624 c0 -11 3 -14 6 -6 3 7 2 16 -1 19 -3 4 -6 -2 -5 -13z"/>
</g>
</svg>
